<!DOCTYPE svg PUBLIC "-//W3C//DTD SVG 1.1//EN" "http://www.w3.org/Graphics/SVG/1.1/DTD/svg11.dtd">
<!-- Uploaded to: SVG Repo, www.svgrepo.com, Transformed by: SVG Repo Mixer Tools -->
<svg fill="#000000" height="143px" width="143px" version="1.1" id="Layer_1" xmlns="http://www.w3.org/2000/svg" xmlns:xlink="http://www.w3.org/1999/xlink" viewBox="-30.72 -30.72 573.39 573.39" xml:space="preserve" stroke="#000000" stroke-width="0.00511947">
<g id="SVGRepo_bgCarrier" stroke-width="0"/>
<g id="SVGRepo_tracerCarrier" stroke-linecap="round" stroke-linejoin="round"/>
<g id="SVGRepo_iconCarrier"> <g> <g> <path d="M508.827,115.067L434.16,40.4c-4.16-4.16-10.88-4.16-15.04,0l-259.2,259.2l-67.093-67.093c-4.16-4.16-10.88-4.16-15.04,0 L3.12,307.173c-4.16,4.16-4.16,10.88,0,15.04l149.333,149.333c4.16,4.16,10.88,4.16,15.04,0l341.333-341.333 C512.987,126.053,512.987,119.227,508.827,115.067z M159.92,448.933L25.627,314.64l59.627-59.627l67.093,67.093 c4.16,4.16,10.88,4.16,15.04,0l259.2-259.093l59.627,59.627L159.92,448.933z"/> </g> </g> </g>
</svg>